# xmcd CD database file
#
# Track frame offsets:
#	150
#	24340
#	43810
#	64757
#	87480
#	104512
#	124665
#	144672
#	165835
#	186555
#	208022
#	232320
#	250842
#	272052
#
# Disc length: 3885 seconds
#
# Revision: 1
# Processed by: cddbd v1.5.2PL0 Copyright (c) Steve Scherf et al.
# Submitted via: CDex 1.51
#
DISCID=cf0f2b0e
DTITLE=Michael Bolton - All That Matters
DYEAR=1900
DGENRE=Rock
TTITLE0=Safe Place From The Storm
TTITLE1=The Best Of Love
TTITLE2=Let's Make A Long Story Longer
TTITLE3=A Heart Can Only Be So Strong
TTITLE4=Fallin'
TTITLE5=Forever's Just A Matter Of Time
TTITLE6=Whenever I Remember Loving You
TTITLE7=Show Her The Way
TTITLE8=Why Me
TTITLE9=Can't Get Close Enough To You
TTITLE10=Let There Be Love
TTITLE11=Pleasure Or Pain
TTITLE12=Go The Distance
TTITLE13=When There Are No Words
EXTD=
EXTT0=
EXTT1=
EXTT2=
EXTT3=
EXTT4=
EXTT5=
EXTT6=
EXTT7=
EXTT8=
EXTT9=
EXTT10=
EXTT11=
EXTT12=
EXTT13=
PLAYORDER=
